<svg width="640" height="102" viewBox="0 0 640 102" fill="none" xmlns="http://www.w3.org/2000/svg">
<path d="M76.3667 85.4295H61.0112V100.458H76.3667V85.4295ZM63.6161 0L0 87.8669V100.458H12.7506L76.3667 50.229V0H63.6161ZM296.144 0V38.856H295.87C292.168 33.1699 284.079 29.1081 275.03 29.1081C256.384 29.1081 243.359 43.5951 243.359 65.6631C243.359 85.4295 255.424 101.947 275.304 101.947C283.257 101.947 292.442 98.0205 296.144 91.1162H296.419L297.104 100.187H307.524V0H296.144ZM276.264 91.6577C262.828 91.6577 255.287 80.2848 255.287 65.5279C255.287 50.4994 262.828 39.1271 276.264 39.1271C289.837 39.1271 296.281 50.6352 296.281 65.5279C296.281 80.1495 289.426 91.6577 276.264 91.6577ZM379.778 90.1685V53.7487C379.778 49.8227 379.092 46.0319 377.584 42.7826C374.431 35.3363 366.067 29.1081 352.494 29.1081C337.687 29.1081 324.799 37.0965 324.25 51.0414H335.63C336.316 42.5116 344.13 38.5856 352.494 38.5856C361.954 38.5856 368.124 43.1889 368.124 52.6658V57.6753L346.324 59.1644C327.815 60.3832 321.097 71.0788 321.097 81.5035C321.097 91.1162 328.638 101.947 345.502 101.947C355.921 101.947 364.285 97.4791 368.535 90.5748H368.809L370.043 100.187H387.181V90.1685H379.778ZM368.124 70.943C368.124 82.9926 359.76 91.9281 347.284 91.9281C337.275 91.9281 333.162 86.3772 333.162 80.4206C333.162 71.8907 340.84 68.5062 348.518 67.9647L368.124 66.6108V70.943ZM537.445 29.1081C528.947 29.1081 518.803 33.4409 515.374 41.4287H515.097L514.276 30.8683H503.996V100.187H515.787V67.9647C515.787 62.1428 516.059 55.3737 518.39 50.229C521.541 44.0008 527.578 39.6685 534.565 39.6685C545.536 39.6685 550.883 46.4382 550.883 57.1338V100.187H562.538V55.5089C562.538 38.9919 553.078 29.1081 537.445 29.1081ZM639.728 68.7772C639.728 68.6414 640 66.8818 640 64.4444C640 45.761 629.307 29.1081 608.191 29.1081C587.218 29.1081 575.285 46.5734 575.285 65.7983C575.285 83.2636 585.843 101.947 607.92 101.947C623.824 101.947 636.023 92.6053 638.218 79.337H626.427C624.096 87.7311 617.651 91.6577 608.327 91.6577C595.031 91.6577 587.353 80.1495 587.353 69.4539V68.7772H639.728ZM608.056 38.9919C620.944 38.9919 627.111 48.7398 627.389 59.0293H587.766C588.038 48.8751 596.129 38.9919 608.056 38.9919ZM424.61 90.1685V0H412.545H399.109V9.61277H412.545V90.1685H398.013V100.187H439.417V90.1685H424.61ZM477.257 90.1685V30.8683H465.194H451.893V40.8872H465.194V90.1685H450.112V100.187H492.476V90.1685H477.257ZM492.205 0H477.257V14.4864H492.205V0ZM196.47 62.1428L197.292 60.9246H218.269V18.6835L159.589 100.458H144.782V100.187L217.721 0H231.157V100.458H218.269V70.8078H196.47V62.1428Z" fill="#051604"/>
</svg>
