<svg width="233" height="32" viewBox="0 0 233 32" fill="none" xmlns="http://www.w3.org/2000/svg">
<path fill-rule="evenodd" clip-rule="evenodd" d="M211.967 2.78034H214.854V25.7809H211.967V23.2112C210.92 25.0195 209.111 26.1933 206.383 26.1933C202.481 26.1933 199.086 22.9574 199.086 17.3103C199.086 11.695 202.481 8.42737 206.383 8.42737C209.111 8.42737 210.92 9.60119 211.967 11.4095V2.78034ZM207.113 10.9019C204.162 10.9019 202.227 13.2496 202.227 17.3103C202.227 21.3711 204.162 23.7188 207.113 23.7188C209.682 23.7188 212.093 21.8153 212.093 17.3103C212.093 12.8054 209.682 10.9019 207.113 10.9019ZM219.835 18.1987C219.962 21.8788 222.563 23.6554 225.101 23.6554C227.639 23.6554 229.035 22.5133 229.765 20.8318H232.747C231.954 23.7823 229.257 26.1933 225.101 26.1933C219.708 26.1933 216.726 22.3229 216.726 17.2787C216.726 11.8854 220.342 8.42741 225.006 8.42741C230.209 8.42741 233.35 12.8054 232.969 18.1987H219.835ZM219.867 15.7241H229.923C229.86 13.313 228.052 10.9019 225.006 10.9019C222.436 10.9019 220.12 12.2978 219.867 15.7241ZM189.881 26.1933C193.847 26.1933 198.066 23.4967 198.066 17.3104C198.066 11.124 193.847 8.42741 189.881 8.42741C185.915 8.42741 181.696 11.124 181.696 17.3104C181.696 23.4967 185.915 26.1933 189.881 26.1933ZM194.989 17.3104C194.989 21.6884 192.482 23.6554 189.881 23.6554C187.28 23.6554 184.773 21.847 184.773 17.3104C184.773 12.6468 187.28 10.9654 189.881 10.9654C192.482 10.9654 194.989 12.7737 194.989 17.3104ZM180.712 14.4234H177.793C177.381 12.393 175.604 10.9654 173.383 10.9654C170.814 10.9654 168.466 12.9641 168.466 17.2469C168.466 21.5932 170.845 23.6554 173.383 23.6554C175.794 23.6554 177.508 22.0374 177.92 20.2291H180.902C180.331 23.4333 177.254 26.1933 173.288 26.1933C168.403 26.1933 165.325 22.4815 165.325 17.2787C165.325 12.2027 168.529 8.42741 173.574 8.42741C177.698 8.42741 180.331 11.5364 180.712 14.4234ZM155.38 4.43006H152.493V8.71292H149.796V11.0288H152.493V21.4981C152.493 25.0512 153.254 25.7809 156.522 25.7809H158.616V23.3698H157.156C155.507 23.3698 155.38 22.9257 155.38 21.1491V11.0288H158.616V8.71292H155.38V4.43006ZM137.721 11.2826C138.704 9.66468 140.354 8.42741 143.241 8.42741C147.365 8.42741 148.856 11.0923 148.856 14.9945V25.7809H145.969V15.851C145.969 13.2179 145.525 10.9337 142.226 10.9337C139.434 10.9337 137.721 12.8689 137.721 16.5173V25.7809H134.834V8.71293H137.721V11.2826ZM125.108 23.6554C122.57 23.6554 119.969 21.8788 119.842 18.1987H132.976C133.357 12.8054 130.216 8.42741 125.013 8.42741C120.35 8.42741 116.733 11.8854 116.733 17.2787C116.733 22.3229 119.715 26.1933 125.108 26.1933C129.264 26.1933 131.961 23.7823 132.754 20.8318H129.772C129.042 22.5133 127.646 23.6554 125.108 23.6554ZM129.931 15.7241H119.874C120.128 12.2978 122.443 10.9019 125.013 10.9019C128.059 10.9019 129.867 13.313 129.931 15.7241ZM93.7668 25.7809H90.8799V8.71293H93.7668V11.2826C94.7503 9.66468 96.3366 8.42741 98.9063 8.42741C101.508 8.42741 103.062 9.5695 103.824 11.4413C105.188 9.34743 107.186 8.42741 109.566 8.42741C113.531 8.42741 115.086 11.0923 115.086 14.9945V25.7809H112.199V15.851C112.199 13.2179 111.691 10.9337 108.551 10.9337C106.076 10.9337 104.426 12.8689 104.426 16.5173V25.7809H101.539V15.851C101.539 13.2179 101.032 10.9337 97.8911 10.9337C95.4165 10.9337 93.7668 12.8689 93.7668 16.5173V25.7809ZM87.8285 8.71293H84.9416V11.4095C83.8946 9.60123 82.2449 8.42741 79.5166 8.42741C75.7413 8.42741 72.2833 11.5047 72.2833 16.9614C72.2833 22.4498 75.7413 25.4954 79.5166 25.4954C82.2449 25.4954 83.8946 24.3533 84.9416 22.545V24.163C84.9416 26.4789 84.4657 27.272 83.8312 27.9382C83.0698 28.7631 81.896 29.2072 80.3414 29.2072C77.6766 29.2072 76.7565 28.0334 76.3758 26.5106H73.2985C73.8378 29.9686 76.4393 31.7452 80.3097 31.7452C82.8477 31.7452 84.9733 30.9204 86.2106 29.4927C87.194 28.4141 87.8285 26.9865 87.8285 23.4967V8.71293ZM75.4241 16.9614C75.4241 13.091 77.4228 10.9019 80.2463 10.9019C82.816 10.9019 85.0685 12.6468 85.0685 16.9614C85.0685 21.3077 82.816 23.0526 80.2463 23.0526C77.4228 23.0526 75.4241 20.8636 75.4241 16.9614ZM67.4974 23.3387C66.5139 24.9566 64.9594 26.1939 62.1359 26.1939C58.1703 26.1939 56.6792 23.529 56.6792 19.6269V8.71349H59.5662V18.7703C59.5662 21.4035 60.0103 23.6876 63.1511 23.6876C65.8794 23.6876 67.4974 21.7524 67.4974 18.1041V8.71349H70.3844V25.7815H67.4974V23.3387ZM51.2513 15.2798C44.2401 16.0729 39.7034 17.2467 39.7034 21.2758C39.7034 24.4166 42.3683 26.1932 45.5725 26.1932C48.5864 26.1932 50.363 25.178 51.4099 23.4331C51.4416 24.4483 51.5368 25.1462 51.632 25.7807H54.5507C54.2334 24.1628 54.0748 22.1958 54.1065 19.3406L54.1383 15.4067C54.17 10.6162 52.0444 8.36377 47.3491 8.36377C44.018 8.36377 40.7821 10.4259 40.4966 14.106H43.4787C43.6056 12.0121 45.0015 10.7114 47.3809 10.7114C49.5064 10.7114 51.2513 11.7583 51.2513 14.8674V15.2798ZM42.9076 21.2123C42.9076 18.8647 46.2388 18.1033 51.4734 17.564V18.6426C51.4734 22.6717 48.9036 23.909 46.207 23.909C44.1449 23.909 42.9076 22.8303 42.9076 21.2123Z" fill="currentColor"></path>
<path fill-rule="evenodd" clip-rule="evenodd" d="M14.3159 0.184858C14.5001 0.0840396 14.7494 0.045639 15.0377 0.045639C15.327 0.045639 15.5777 0.0858665 15.7629 0.191696C15.9654 0.307448 16.0755 0.494662 16.0755 0.728241V0.736071L15.9173 4.95548C15.9166 5.04737 15.894 5.13726 15.8433 5.21788C15.7922 5.29903 15.7201 5.35906 15.6385 5.40226C15.4816 5.48538 15.2729 5.51536 15.0377 5.51536C14.8026 5.51536 14.5939 5.48538 14.437 5.40226C14.3554 5.35906 14.2833 5.29903 14.2322 5.21788C14.1815 5.13727 14.1589 5.04739 14.1582 4.95552C14.1185 3.905 14.0863 3.0906 14.0599 2.51353L14.0597 2.50865C14.0464 1.91678 14.0333 1.49818 14.0202 1.25167C14.0071 1.00435 14 0.845988 14 0.786958V0.708353C14 0.599827 14.0252 0.49499 14.0824 0.401206C14.1393 0.307878 14.2208 0.23698 14.3159 0.184858ZM17.6704 0.184858C17.8545 0.0840396 18.1038 0.045639 18.3922 0.045639C18.6814 0.045639 18.9322 0.0858664 19.1173 0.191696C19.3199 0.307448 19.4299 0.494662 19.4299 0.728241V0.736071L19.2718 4.95548C19.2711 5.04737 19.2485 5.13726 19.1978 5.21788C19.1467 5.29903 19.0745 5.35906 18.9929 5.40226C18.836 5.48538 18.6273 5.51536 18.3922 5.51536C18.1571 5.51536 17.9484 5.48538 17.7915 5.40226C17.7099 5.35906 17.6377 5.29903 17.5866 5.21788C17.5359 5.13728 17.5133 5.04742 17.5126 4.95555C17.4729 3.90502 17.4408 3.0906 17.4143 2.51353L17.4141 2.50865C17.4009 1.91678 17.3877 1.49818 17.3746 1.25167C17.3615 1.00435 17.3545 0.845988 17.3545 0.786958V0.708353C17.3545 0.599827 17.3797 0.49499 17.4368 0.401206C17.4937 0.307878 17.5752 0.23698 17.6704 0.184858ZM20.4524 6.75723C20.6517 6.57771 20.8984 6.49297 21.1788 6.49297H27.4464C28.2512 6.49297 28.8976 6.70808 29.3563 7.16471C29.8167 7.62292 30.0288 8.28027 30.0288 9.09809V14.43C30.0288 15.0515 30.1557 15.4625 30.3642 15.7033C30.565 15.9341 30.9495 16.0862 31.5851 16.1009L31.5957 16.1011C31.8489 16.1199 32.0655 16.2192 32.2292 16.4052C32.3951 16.5913 32.4693 16.8247 32.4693 17.0846C32.4693 17.3347 32.3927 17.5604 32.2358 17.7543C32.072 17.9602 31.8458 18.0676 31.5829 18.0683C30.9486 18.0833 30.5653 18.2354 30.3636 18.4665C30.1545 18.7072 30.0288 19.1225 30.0288 19.7628V25.0947C30.0288 25.6364 29.9347 26.1078 29.7358 26.5056C29.5354 26.9065 29.2385 27.2082 28.846 27.4097L28.845 27.4102C28.455 27.6078 27.9859 27.7017 27.4464 27.7017H21.3879V27.7074H21.1788C20.8938 27.7074 20.647 27.615 20.448 27.4268C20.2527 27.2409 20.1467 27.0108 20.1467 26.7473C20.1467 26.4957 20.231 26.268 20.3982 26.0793C20.5752 25.8795 20.8111 25.7854 21.0841 25.7854H26.9037C27.2001 25.7854 27.3876 25.7103 27.5066 25.5893L27.5078 25.5881C27.6256 25.4703 27.7051 25.2684 27.7051 24.9356V19.5554C27.7051 19.0568 27.8059 18.5989 28.0085 18.1843C28.2099 17.7714 28.4829 17.4417 28.8281 17.1987C28.8851 17.1588 28.9445 17.1217 29.0048 17.0884C28.9445 17.055 28.8858 17.0184 28.8287 16.9785C28.4827 16.7371 28.2097 16.4059 28.0084 15.9922C27.8058 15.5777 27.7051 15.1198 27.7051 14.6213V9.26477C27.7051 8.93476 27.626 8.73201 27.5073 8.61185C27.3863 8.49115 27.1965 8.41504 26.9037 8.41504H21.0841C20.8117 8.41504 20.5769 8.31907 20.3992 8.12127C20.2309 7.9337 20.1467 7.70623 20.1467 7.45211C20.1467 7.17667 20.2477 6.93991 20.4524 6.75723ZM20.4524 6.75723L20.4515 6.75807L20.5916 6.91324L20.4524 6.75723ZM3.90353 7.17033C4.36067 6.71319 5.00931 6.49825 5.81383 6.49825H12.0814C12.3632 6.49825 12.6084 6.58477 12.8077 6.76246L12.8087 6.76334C13.01 6.94515 13.1135 7.18296 13.1135 7.45739C13.1135 7.71227 13.029 7.937 12.862 8.12545C12.6854 8.32471 12.4498 8.42032 12.1761 8.42032H6.35649C6.06127 8.42032 5.87262 8.49672 5.75278 8.61722C5.63503 8.73497 5.55507 8.93727 5.55507 9.27005V14.6266C5.55507 15.1253 5.45431 15.5832 5.2516 15.9979C5.05023 16.4107 4.7773 16.7404 4.43216 16.9833C4.37506 17.0232 4.31568 17.0603 4.25542 17.0936C4.31568 17.127 4.37437 17.1636 4.43146 17.2035C4.77748 17.4449 5.05053 17.7761 5.25178 18.1898C5.45448 18.6044 5.55507 19.062 5.55507 19.5607V24.9409C5.55507 25.2733 5.63445 25.4748 5.75278 25.5937C5.87296 25.7152 6.0622 25.7906 6.35649 25.7906H12.1761C12.4485 25.7906 12.6829 25.8865 12.8606 26.083C13.0313 26.2729 13.1135 26.5001 13.1135 26.7526C13.1135 27.0177 13.0091 27.2457 12.8123 27.432C12.6126 27.6221 12.3647 27.7127 12.0814 27.7127H5.60476V27.7021C5.15234 27.6805 4.75393 27.5871 4.41524 27.4155C4.0217 27.2155 3.72258 26.9094 3.52418 26.5105C3.32752 26.1151 3.23145 25.6412 3.23145 25.1V19.7681C3.23145 19.1307 3.10425 18.7134 2.896 18.4711C2.69533 18.2406 2.31151 18.0886 1.67736 18.0736C1.41244 18.0729 1.18832 17.9679 1.02386 17.7589C0.8674 17.5643 0.790894 17.3371 0.790894 17.0899C0.790894 16.8299 0.865136 16.5965 1.03109 16.4103C1.19573 16.2246 1.41398 16.1255 1.66429 16.1067L1.67483 16.1059C2.31121 16.0903 2.69564 15.9391 2.89634 15.7082C3.10623 15.4668 3.23145 15.0573 3.23145 14.4353V9.10337C3.23145 8.28506 3.44567 7.62819 3.90353 7.17033ZM22.5255 14.7874C21.2689 14.7874 20.25 15.8063 20.25 17.0629C20.25 18.3196 21.2689 19.3385 22.5255 19.3385C23.7822 19.3385 24.8011 18.3196 24.8011 17.0629C24.8011 15.8063 23.7822 14.7874 22.5255 14.7874ZM8.93933 17.0629C8.93933 15.8063 9.95821 14.7874 11.2149 14.7874C12.4715 14.7874 13.4904 15.8063 13.4904 17.0629C13.4904 18.3196 12.4715 19.3385 11.2149 19.3385C9.95821 19.3385 8.93933 18.3196 8.93933 17.0629Z" fill="currentColor"></path>
</svg>