<?xml version="1.0" encoding="UTF-8"?>
<svg id="Layer_2" xmlns="http://www.w3.org/2000/svg" xmlns:xlink="http://www.w3.org/1999/xlink" viewBox="0 0 2808.76 477.27">
  <defs>
    <style>
      .cls-1 {
        fill: #001636;
      }

      .cls-2 {
        font-family: Rubik-Bold, Rubik;
        font-size: 146.9px;
        font-variation-settings: 'wght' 700;
        font-weight: 700;
      }

      .cls-3 {
        fill: url(#linear-gradient);
      }
    </style>
    <linearGradient id="linear-gradient" x1="238.64" y1="390.05" x2="238.64" y2="73.51" gradientUnits="userSpaceOnUse">
      <stop offset="0" stop-color="#755ad9"/>
      <stop offset="1" stop-color="#84d7fd"/>
    </linearGradient>
  </defs>
  <g id="Layer_1-2" data-name="Layer_1">
    <g>
      <rect class="cls-1" x="0" width="477.27" height="477.27" rx="138.01" ry="138.01"/>
      <path class="cls-3" d="M396.87,236.13c0-.08,0-.16,0-.24-.02-.44-.05-.88-.09-1.31-.03-.44-.08-.87-.13-1.3-.08-.64-.18-1.28-.29-1.91-.08-.46-.17-.9-.27-1.35,0-.03-.02-.07-.03-.1-.14-.62-.3-1.23-.46-1.84-.08-.31-.17-.61-.26-.92-.13-.42-.27-.84-.41-1.26-3.37-9.77-10.8-17.63-20.35-21.54,0,0,0,0,0,0-.7-.29-1.4-.55-2.12-.79-.41-.14-.83-.27-1.25-.4-.15-.04-.29-.1-.44-.14-.34-.09-.69-.18-1.04-.27-.54-.14-1.09-.27-1.64-.38-.23-.05-.45-.09-.67-.13-.38-.07-.77-.13-1.16-.2-.19-.03-.38-.05-.56-.08-.19-.03-.38-.06-.56-.07-.3-.04-.59-.07-.89-.09-.3-.03-.6-.06-.89-.08h-.03c-.29-.02-.58-.03-.88-.05h-.02c-.53-.03-1.07-.04-1.6-.04-14.17,0-26.45,8.2-32.36,20.1-.16.31-.31.63-.45.94-.15.31-.29.64-.42.95-.14.32-.27.64-.4.96-.13.31-.24.64-.36.96-.12.31-.22.62-.32.93-.06.18-.12.36-.17.54-.09.28-.18.56-.26.86-.32,1.14-.6,2.31-.81,3.49-.03.16-.06.34-.09.51-.04.22-.07.44-.1.67-.05.33-.09.67-.13,1-.05.39-.09.79-.12,1.19-.02.3-.05.6-.06.91-.02.22-.02.45-.03.67,0,.17-.02.34-.02.5,0,.31-.02.62-.02.93s0,.62.02.93c0,.16,0,.33.02.5,0,.22.02.45.03.67.02.31.04.61.06.91.03.4.07.8.12,1.19.04.34.08.67.13,1,.03.2.06.41.09.61.03.19.06.38.09.56.21,1.18.49,2.35.81,3.49.08.29.16.57.26.85.05.2.13.4.19.6.09.29.2.59.31.88.12.32.24.65.36.96.38.97.81,1.93,1.27,2.85,5.34,10.69,4.9,23.37-1.16,33.67-6.06,10.3-16.93,16.83-28.87,17.36-1.41.06-2.81.2-4.19.44-8.72-2.53-16.25-8.38-20.85-16.46-5.28-9.29-6.04-20.39-2.22-30.21.31-.46.61-.93.9-1.4,2.33-3.83,3.85-7.94,4.62-12.11.01-.05.02-.11.03-.16.03-.14.06-.29.08-.43,0,0,0-.02,0-.03.01-.07.02-.15.03-.22.38-2.1.59-4.26.59-6.47,0-6.52-1.74-12.63-4.78-17.92-.03-.05-.05-.1-.08-.14-.13-.22-.25-.44-.38-.65-.03-.05-.06-.09-.09-.14-10.06-16.71-31.74-22.45-48.78-12.75-.27.15-.53.31-.8.47-.15.09-.28.17-.43.27-.19.11-.38.24-.56.35-.26.16-.52.33-.76.5-.19.13-.37.26-.56.39-.24.18-.49.35-.74.53-.24.19-.48.37-.71.56-.24.19-.47.38-.71.57-1.15.96-2.24,1.98-3.26,3.07-.2.21-.4.43-.6.65-.2.22-.38.45-.58.67-.95,1.12-1.82,2.3-2.62,3.51-4.13,6.31-6.2,13.78-5.91,21.31v.24c.02.44.04.88.05,1.31.05.86.14,1.72.25,2.57.05.44.13.88.2,1.31.04.26.09.53.14.79,0,.06.02.11.02.16.05.25.1.5.16.75.05.28.13.56.2.85.06.28.13.56.21.84l.16.56c.08.27.16.54.24.81.12.38.24.78.38,1.15.25.73.53,1.45.84,2.17.3.71.62,1.42.97,2.13.03.06.05.1.08.16,5.33,10.81,4.77,23.61-1.5,33.92-5.25,8.64-13.88,14.53-23.64,16.37-1.34-.19-2.71-.29-4.08-.31-12.1-.23-23.24-6.64-29.52-16.99-6.28-10.35-6.81-23.19-1.41-34.03,2.49-4.99,3.74-10.37,3.74-15.99s-1.26-11.01-3.74-16c-5.4-10.83-4.86-23.68,1.41-34.03,6.28-10.35,17.42-16.77,29.52-17,.3,0,.59-.02.88-.03.2,0,.4-.02.6-.03.27-.02.54-.03.81-.06.07,0,.15-.02.22-.02.29-.03.59-.05.88-.09,0,0,0,0,0,0,.38-.04.75-.09,1.12-.14.02,0,.04,0,.06,0,.24-.04.48-.08.72-.12.11-.02.22-.04.33-.05.19-.03.37-.07.56-.11.27-.05.54-.11.81-.17.25-.05.5-.11.75-.17.05,0,.11-.02.16-.04.04,0,.07-.02.11-.03.22-.06.45-.11.67-.17.07-.02.15-.04.22-.06.07-.02.14-.05.22-.07.58-.17,1.16-.34,1.73-.54.06-.02.12-.03.17-.05.06-.02.12-.05.19-.07.63-.22,1.26-.46,1.88-.71h0s0,0,0,0c.23-.09.45-.19.68-.29.11-.05.23-.09.34-.15.17-.08.34-.16.51-.24.22-.11.45-.21.67-.32.26-.12.51-.25.76-.38.03-.02.07-.04.1-.06.06-.03.12-.07.18-.1.14-.08.29-.16.43-.24.03-.02.06-.03.08-.05.27-.15.55-.31.82-.47.05-.03.1-.06.15-.09.15-.09.29-.18.44-.27.01,0,.03-.01.04-.02.22-.13.44-.27.66-.42.06-.04.12-.09.18-.13.3-.2.6-.4.89-.61.17-.12.34-.24.5-.36.28-.2.55-.41.82-.62.19-.15.38-.3.57-.45.24-.19.47-.38.7-.58.21-.18.42-.36.63-.55.22-.19.43-.39.64-.59.1-.09.21-.18.31-.28.12-.12.24-.23.35-.35.63-.61,1.23-1.25,1.81-1.91.05-.05.09-.1.14-.15.05-.05.09-.11.14-.16.31-.36.61-.72.91-1.09.03-.04.06-.08.09-.12.33-.42.65-.84.96-1.27,0,0,.01-.02.02-.02.03-.04.05-.08.08-.11.4-.56.78-1.12,1.15-1.7.02-.03.04-.06.05-.08.03-.04.06-.09.09-.13.06-.1.13-.21.2-.31,6.51-10,17.64-16.03,29.58-16.03s23.29,6.16,29.77,16.33c.03.05.06.09.09.15.59.94,1.22,1.86,1.91,2.74.48.63.98,1.23,1.5,1.82.21.24.43.48.65.72.18.19.35.4.53.59.31.33.64.65.96.96.96.93,1.98,1.8,3.05,2.62.06.04.11.09.17.13,1.61,1.23,3.32,2.32,5.12,3.26.07.04.13.08.2.11.16.08.31.16.47.23.13.07.27.13.4.2.45.22.89.42,1.35.62.33.14.67.28,1,.42.02.02.05.02.07.03.31.12.63.24.94.35.66.24,1.32.46,1.99.66,1,.3,2,.55,3.03.76.27.05.53.11.81.16l.14.02c.23.05.46.08.69.12.1.02.2.03.31.05.22.03.45.06.67.09.05,0,.09.02.13.02.57.07,1.15.13,1.73.18.31.02.61.04.92.06.62.03,1.24.05,1.86.05,14,0,26.17-8.01,32.16-19.69.66-1.29,1.25-2.64,1.76-4.02.1-.28.2-.56.3-.84.09-.27.19-.56.27-.84.45-1.42.8-2.87,1.06-4.35.05-.3.1-.6.15-.89.05-.3.09-.6.13-.89.04-.31.07-.6.1-.91.02-.23.05-.45.06-.67.03-.3.05-.6.06-.91.02-.22.02-.45.03-.67,0-.17.02-.34.02-.5,0-.31.02-.62.02-.93,0-19.92-16.2-36.11-36.11-36.11-.31,0-.62,0-.93.02-.27,0-.53.02-.8.02-.09,0-.17,0-.26.02-.17,0-.35.02-.52.03-.24.02-.47.03-.71.06-1.08.09-2.14.24-3.19.43-.29.05-.58.1-.86.16-.29.05-.59.12-.88.19-.58.13-1.15.28-1.73.45-.21.06-.42.13-.64.19-.39.12-.78.24-1.17.38-.24.09-.49.16-.73.26-.41.15-.82.31-1.23.47-.4.17-.81.35-1.21.53-.4.18-.79.37-1.18.56-.2.1-.39.22-.59.32-.35.18-.7.37-1.05.57-.45.25-.89.51-1.33.79-.31.19-.61.39-.91.59-.21.14-.42.26-.63.4-.71.49-1.4,1-2.07,1.55-.35.27-.68.56-1.01.85-.2.17-.41.35-.6.53-.05.04-.09.08-.13.11-.19.17-.38.35-.56.53-.21.2-.42.4-.62.6-.2.2-.41.41-.6.62l-.4.42c-.19.2-.38.42-.56.63-.27.3-.53.61-.78.93-.49.6-.97,1.21-1.42,1.84-.46.63-.9,1.28-1.31,1.94-.03.05-.06.1-.09.15-6.47,10.17-17.7,16.33-29.77,16.33s-23.07-6.03-29.58-16.03c-.06-.09-.12-.18-.17-.27-.04-.06-.07-.12-.11-.17-.01-.02-.02-.04-.04-.05-.63-1-1.31-1.97-2.04-2.91-.02-.02-.04-.05-.05-.07-.42-.53-.85-1.06-1.29-1.57-.02-.02-.03-.04-.05-.06-.03-.03-.06-.06-.08-.09-.16-.18-.32-.36-.48-.54-.03-.03-.06-.07-.09-.1-.02-.02-.04-.05-.05-.06-.26-.27-.52-.54-.78-.81-.02-.02-.04-.04-.06-.05-.3-.3-.6-.58-.91-.87-.06-.06-.13-.12-.19-.18,0,0-.02-.02-.03-.03-.11-.1-.22-.21-.34-.31-.03-.03-.06-.06-.09-.08-.2-.18-.4-.34-.6-.52-.17-.15-.34-.3-.52-.44-.39-.32-.79-.64-1.2-.95-.22-.16-.44-.32-.66-.48-.21-.15-.42-.31-.64-.45-.22-.15-.44-.3-.66-.44-.14-.09-.28-.19-.42-.28-.21-.13-.42-.26-.63-.39-.24-.15-.49-.3-.75-.44-.12-.07-.24-.13-.35-.19-.26-.15-.52-.29-.79-.43-.13-.07-.26-.15-.4-.22-.14-.08-.29-.14-.43-.21-.23-.12-.47-.23-.71-.34-.15-.07-.29-.15-.44-.21-.13-.06-.27-.11-.4-.17-.31-.13-.61-.26-.92-.39-.1-.04-.2-.09-.3-.12-.13-.05-.26-.1-.39-.15-2.54-.97-5.21-1.66-7.98-2.03-.16-.02-.32-.05-.48-.07-.06,0-.13-.01-.19-.02-.32-.04-.63-.07-.95-.1-.05,0-.1-.01-.15-.02-.19-.02-.38-.03-.56-.05-.11,0-.22-.01-.33-.02-.25-.01-.49-.03-.74-.04-.17,0-.34-.02-.51-.02-.2,0-.4,0-.6,0-.11,0-.22,0-.34,0-12.12,0-22.86,6.01-29.41,15.2-4.21,5.91-6.7,13.12-6.7,20.92,0,.31,0,.62.02.93,0,.16,0,.31.02.47,0,.15,0,.3.02.46,0,.08,0,.16.02.24.02.3.04.6.06.9,0,.1.02.19.03.29.04.44.09.88.15,1.32.03.24.06.49.09.73.1.66.21,1.31.34,1.95.05.28.12.58.18.86.06.24.12.47.18.71.02.09.04.17.07.26.13.5.27,1,.42,1.5,0,.03.02.05.03.08,0,.03.02.06.03.1.08.26.17.52.25.78.07.2.15.4.22.6.05.14.1.28.15.42.14.38.29.75.44,1.13.05.13.1.26.16.38.13.32.27.63.42.95.03.08.07.15.11.23.1.22.21.45.32.67.08.16.15.32.23.48,5.17,10.75,4.57,23.38-1.62,33.6-6.28,10.35-17.42,16.77-29.52,16.99-19.53.37-35.41,16.57-35.41,36.11s15.88,35.74,35.41,36.1c12.1.23,23.25,6.64,29.52,16.99,5.87,9.69,6.71,21.58,2.37,31.94-.05.08-.09.16-.14.24-.37.6-.71,1.21-1.04,1.81-.16.31-.32.61-.47.92-.12.22-.23.45-.33.68-.1.2-.2.42-.29.63-.02.04-.05.09-.05.13-.19.44-.37.87-.55,1.31,0,0-.02,0,0,.02-.02.03-.04.07-.05.11-.13.31-.24.63-.35.95-.11.29-.2.58-.31.88-.27.85-.53,1.71-.75,2.57-.28,1.15-.51,2.3-.68,3.47-.05.28-.08.57-.11.86-.08.58-.13,1.16-.17,1.75-.02.29-.05.58-.05.87-.02.58-.04,1.17-.04,1.74,0,.88.03,1.75.09,2.61.02.36.05.72.09,1.08.07.73.16,1.44.28,2.16.06.36.13.71.2,1.07.11.56.24,1.13.37,1.69,1.05,4.29,2.89,8.39,5.44,12.06,7.47,11.28,20.3,17.18,33.11,16.28.35-.02.71-.06,1.05-.09.35-.03.7-.07,1.05-.12.35-.04.7-.09,1.05-.15.34-.05.69-.12,1.03-.18.33-.05.65-.13.98-.2.19-.04.38-.08.56-.13.29-.06.59-.13.88-.21,1.16-.3,2.32-.66,3.46-1.09.16-.06.33-.12.49-.19.21-.08.42-.16.63-.25.32-.12.63-.26.95-.4.37-.16.74-.33,1.1-.51.27-.13.55-.27.83-.41.2-.1.4-.21.6-.32.15-.08.3-.16.45-.24.28-.15.55-.3.82-.47.27-.16.54-.32.81-.49.14-.08.28-.18.43-.27.19-.12.38-.24.57-.37.26-.17.51-.35.76-.52.33-.23.66-.47.98-.72.27-.21.55-.41.81-.63.16-.13.32-.26.49-.4.15-.12.3-.25.45-.37.93-.79,1.81-1.63,2.63-2.5.21-.22.42-.44.61-.66.14-.15.29-.32.42-.47.21-.23.41-.47.61-.72.22-.27.45-.54.66-.81.65-.83,1.27-1.7,1.84-2.58,6.59-10.15,17.89-16.28,30-16.27,12.11,0,23.39,6.14,29.99,16.3.78,1.2,1.62,2.35,2.53,3.43,5.66,6.81,13.65,11.34,22.46,12.73.14-.04.28-.07.43-.11,2.4.39,4.84.53,7.29.43.5-.02,1.01-.06,1.51-.11.35-.02.69-.05,1.04-.1.9-.1,1.79-.24,2.68-.41.33-.06.66-.13.99-.2.82-.18,1.65-.4,2.47-.64.28-.09.57-.18.85-.27,1.36-.44,2.7-.96,4.02-1.58.27-.13.55-.26.82-.39.07-.03.14-.07.21-.1.14-.07.27-.14.41-.21.14-.07.27-.14.42-.22.27-.15.54-.29.82-.45,8.65-4.92,14.5-12.9,16.96-21.82.15-.56.29-1.12.42-1.69.08-.35.15-.7.22-1.05.08-.41.15-.81.21-1.22.04-.22.06-.44.09-.66.01-.09.03-.18.04-.28,0-.06.01-.12.02-.19,1.09-8.01-.47-16.22-4.7-23.4-.2-.35-.42-.68-.64-1.02-4.28-10.23-3.54-21.92,2.13-31.55,6.06-10.31,16.93-16.84,28.87-17.36.08,0,.16,0,.24-.02.31-.02.61-.03.92-.05.31-.02.61-.06.91-.09.31-.03.6-.06.91-.1.56-.07,1.11-.16,1.66-.25.41-.07.83-.15,1.24-.23.08-.02.15-.04.23-.06.57-.12,1.14-.27,1.7-.42.5-.13.99-.28,1.47-.43.28-.09.56-.17.83-.27,10.78-3.67,19.2-12.27,22.65-23.1.17-.51.32-1.03.46-1.55.03-.09.06-.18.08-.28.25-.93.45-1.88.63-2.85.11-.64.21-1.27.29-1.91.05-.43.1-.86.13-1.3.04-.43.07-.87.09-1.31,0-.09,0-.16,0-.24.02-.53.04-1.07.04-1.62s-.02-1.08-.04-1.62ZM209.92,322.25c-.04-.07-.09-.14-.14-.2-.17-.26-.34-.52-.52-.77-.18-.26-.36-.51-.54-.75-.07-.09-.13-.18-.2-.27-.05-.16-.11-.32-.15-.49-2.78-9.44-1.51-19.73,3.69-28.29,6.27-10.31,17.36-16.71,29.41-16.96.05,0,.11,0,.17,0,.56-.02,1.11-.04,1.66-.07.56-.03,1.12-.08,1.67-.14.05,0,.11,0,.16-.02,9.88,2.02,18.51,8.2,23.58,17.12,4.64,8.15,5.79,17.7,3.41,26.56-.18.67-.38,1.34-.6,2-.47.61-.92,1.23-1.35,1.88-.09.14-.19.28-.28.43-6.6,10.15-17.89,16.27-30,16.27-12.11,0-23.4-6.13-29.98-16.29Z"/>
    </g>
    <g>
      <path d="M685,394.23c-27.38,0-50.78-4.46-70.23-13.4-19.45-8.93-34.58-22.04-45.38-39.33-10.81-17.29-16.79-38.75-17.94-64.4-.29-11.81-.43-24.49-.43-38.03s.14-26.51.43-38.9c1.15-25.07,7.2-46.31,18.15-63.75,10.95-17.43,26.22-30.69,45.81-39.76,19.59-9.08,42.79-13.61,69.58-13.61,19.02,0,36.59,2.38,52.73,7.13,16.13,4.75,30.25,11.67,42.35,20.75,12.1,9.08,21.53,20.03,28.31,32.85,6.77,12.82,10.3,27.3,10.59,43.44.28,2.59-.51,4.75-2.38,6.48-1.88,1.73-4.11,2.59-6.7,2.59h-58.35c-3.75,0-6.63-.79-8.64-2.38-2.02-1.58-3.75-4.54-5.19-8.86-4.04-15.27-10.59-25.72-19.66-31.33-9.08-5.62-20.25-8.43-33.5-8.43-15.85,0-28.38,4.4-37.6,13.18-9.22,8.79-14.26,23.41-15.13,43.87-.86,23.63-.86,47.83,0,72.61.86,20.46,5.9,35.08,15.13,43.87,9.22,8.79,21.75,13.18,37.6,13.18,13.25,0,24.49-2.88,33.71-8.64,9.22-5.76,15.7-16.13,19.45-31.12,1.15-4.32,2.81-7.27,4.97-8.86,2.16-1.58,5.11-2.38,8.86-2.38h58.35c2.59,0,4.82.86,6.7,2.59,1.87,1.73,2.66,3.89,2.38,6.48-.29,16.14-3.82,30.62-10.59,43.44-6.77,12.82-16.21,23.77-28.31,32.85-12.1,9.08-26.22,15.99-42.35,20.75-16.14,4.75-33.71,7.13-52.73,7.13Z"/>
      <path d="M965.92,394.23c-24.2,0-44.59-3.89-61.16-11.67-16.57-7.78-29.25-18.94-38.03-33.49-8.79-14.55-13.76-31.91-14.91-52.08-.29-5.76-.43-12.32-.43-19.66s.14-13.76.43-19.23c1.15-20.45,6.33-37.88,15.56-52.3,9.22-14.4,22.11-25.5,38.68-33.28,16.57-7.78,36.52-11.67,59.86-11.67s43.72,3.89,60.29,11.67c16.57,7.78,29.46,18.87,38.68,33.28,9.22,14.41,14.4,31.84,15.56,52.3.28,5.48.43,11.89.43,19.23s-.15,13.9-.43,19.66c-1.15,20.17-6.12,37.53-14.91,52.08-8.79,14.55-21.47,25.72-38.03,33.49-16.57,7.78-37.1,11.67-61.59,11.67ZM965.92,341.5c12.97,0,22.4-3.89,28.31-11.67,5.9-7.78,9.29-19.45,10.16-35.01.28-4.32.43-10.08.43-17.29s-.15-12.97-.43-17.29c-.86-15.27-4.25-26.86-10.16-34.79-5.91-7.92-15.34-11.89-28.31-11.89s-22.04,3.96-28.09,11.89c-6.05,7.93-9.37,19.52-9.94,34.79-.29,4.32-.43,10.09-.43,17.29s.14,12.97.43,17.29c.57,15.56,3.89,27.23,9.94,35.01,6.05,7.78,15.41,11.67,28.09,11.67Z"/>
      <path d="M1179.42,389.9c-4.32,0-7.5-1.01-9.51-3.03-2.02-2.01-3.61-4.61-4.75-7.78l-62.24-200.1c-.58-1.44-.86-2.88-.86-4.32,0-2.59,1.01-4.82,3.03-6.7,2.01-1.87,4.32-2.81,6.92-2.81h44.52c3.74,0,6.7,1.01,8.86,3.03,2.16,2.02,3.52,4.04,4.11,6.05l36.3,123.61,38.9-123.17c.57-2.01,1.94-4.11,4.11-6.27,2.16-2.16,5.25-3.24,9.29-3.24h28.52c4.03,0,7.13,1.08,9.29,3.24,2.16,2.16,3.52,4.25,4.11,6.27l38.9,123.17,36.3-123.61c.57-2.01,1.95-4.03,4.11-6.05,2.16-2.01,5.11-3.03,8.86-3.03h44.52c2.59,0,4.82.94,6.7,2.81,1.87,1.88,2.81,4.11,2.81,6.7,0,1.45-.15,2.88-.43,4.32l-62.24,200.1c-.86,3.17-2.38,5.77-4.54,7.78-2.16,2.02-5.4,3.03-9.72,3.03h-38.9c-4.04,0-7.21-1.01-9.51-3.03-2.31-2.01-3.89-4.61-4.75-7.78l-39.76-118.42-39.76,118.42c-.86,3.17-2.45,5.77-4.75,7.78-2.31,2.02-5.48,3.03-9.51,3.03h-38.9Z"/>
      <path d="M1578.76,394.23c-24.2,0-44.59-3.89-61.16-11.67-16.57-7.78-29.25-18.94-38.03-33.49-8.79-14.55-13.76-31.91-14.91-52.08-.29-5.76-.43-12.32-.43-19.66s.14-13.76.43-19.23c1.15-20.45,6.33-37.88,15.56-52.3,9.22-14.4,22.11-25.5,38.68-33.28,16.57-7.78,36.52-11.67,59.86-11.67s43.72,3.89,60.29,11.67c16.57,7.78,29.46,18.87,38.68,33.28,9.22,14.41,14.4,31.84,15.56,52.3.28,5.48.43,11.89.43,19.23s-.15,13.9-.43,19.66c-1.15,20.17-6.12,37.53-14.91,52.08-8.79,14.55-21.47,25.72-38.03,33.49-16.57,7.78-37.1,11.67-61.59,11.67ZM1578.76,341.5c12.97,0,22.4-3.89,28.31-11.67,5.9-7.78,9.29-19.45,10.16-35.01.28-4.32.43-10.08.43-17.29s-.15-12.97-.43-17.29c-.86-15.27-4.25-26.86-10.16-34.79-5.91-7.92-15.34-11.89-28.31-11.89s-22.04,3.96-28.09,11.89c-6.05,7.93-9.37,19.52-9.94,34.79-.29,4.32-.43,10.09-.43,17.29s.14,12.97.43,17.29c.57,15.56,3.89,27.23,9.94,35.01,6.05,7.78,15.41,11.67,28.09,11.67Z"/>
      <path d="M1746.88,389.9c-3.17,0-5.77-1.01-7.78-3.03-2.02-2.01-3.03-4.61-3.03-7.78v-203.13c0-2.88,1.01-5.4,3.03-7.56,2.01-2.16,4.61-3.24,7.78-3.24h49.7c3.17,0,5.76,1.08,7.78,3.24,2.01,2.16,3.03,4.69,3.03,7.56v17.29c7.78-8.93,17.07-15.84,27.88-20.75,10.81-4.9,22.97-7.35,36.52-7.35h19.02c2.88,0,5.4,1.01,7.56,3.03,2.16,2.02,3.24,4.61,3.24,7.78v44.52c0,2.88-1.08,5.4-3.24,7.56-2.16,2.16-4.69,3.24-7.56,3.24h-41.92c-11.82,0-20.96,3.24-27.44,9.72-6.48,6.48-9.72,15.63-9.72,27.44v110.64c0,3.17-1.08,5.77-3.24,7.78-2.16,2.02-4.83,3.03-8,3.03h-53.59Z"/>
      <path d="M1943.09,389.9c-3.17,0-5.77-1.01-7.78-3.03-2.02-2.01-3.03-4.61-3.03-7.78V93.85c0-3.17,1.01-5.76,3.03-7.78,2.01-2.01,4.61-3.03,7.78-3.03h50.13c2.88,0,5.4,1.01,7.56,3.03,2.16,2.02,3.24,4.61,3.24,7.78v144.78l60.07-66.13c1.73-2.01,3.6-3.74,5.62-5.19,2.01-1.44,4.9-2.16,8.64-2.16h57.91c2.59,0,4.82.94,6.7,2.81,1.87,1.88,2.81,4.11,2.81,6.7,0,1.15-.29,2.45-.86,3.89-.58,1.45-1.45,2.59-2.59,3.46l-77.79,83.85,88.6,107.62c2.3,2.31,3.46,4.61,3.46,6.92,0,2.59-.94,4.83-2.81,6.7-1.88,1.88-4.25,2.81-7.13,2.81h-59.21c-4.32,0-7.5-.79-9.51-2.38-2.02-1.58-3.89-3.24-5.62-4.97l-68.29-82.12v78.66c0,3.17-1.08,5.77-3.24,7.78-2.16,2.02-4.69,3.03-7.56,3.03h-50.13Z"/>
      <path d="M2278.47,394.23c-34,0-61.09-9.22-81.25-27.66-20.17-18.44-30.69-45.81-31.55-82.12v-15.13c.86-22.76,5.98-42.28,15.34-58.56,9.36-16.27,22.33-28.67,38.9-37.17,16.57-8.5,35.94-12.75,58.13-12.75,25.35,0,46.31,5.04,62.88,15.13,16.57,10.09,29.03,23.77,37.39,41.06,8.35,17.29,12.53,37.03,12.53,59.21v10.37c0,3.17-1.08,5.77-3.24,7.78-2.16,2.02-4.68,3.03-7.56,3.03h-138.3v3.03c.28,8.36,1.73,15.99,4.32,22.91,2.59,6.92,6.62,12.39,12.1,16.42,5.47,4.04,12.1,6.05,19.88,6.05,5.76,0,10.59-.93,14.48-2.81,3.89-1.87,7.13-4.03,9.73-6.48,2.59-2.44,4.6-4.54,6.05-6.27,2.59-2.88,4.68-4.68,6.27-5.4,1.58-.72,4.11-1.08,7.57-1.08h53.59c2.88,0,5.25.8,7.13,2.38,1.87,1.59,2.66,3.82,2.38,6.7-.29,4.9-2.74,10.8-7.35,17.72-4.61,6.92-11.31,13.76-20.1,20.53-8.79,6.77-19.81,12.32-33.06,16.64-13.26,4.32-28.67,6.48-46.24,6.48ZM2241.74,254.63h73.04v-.86c0-9.22-1.37-17.29-4.11-24.2-2.74-6.92-6.92-12.24-12.53-15.99-5.62-3.74-12.32-5.62-20.1-5.62s-14.33,1.88-19.66,5.62c-5.33,3.75-9.44,9.08-12.32,15.99-2.88,6.92-4.32,14.98-4.32,24.2v.86Z"/>
      <path d="M2515.31,394.23c-13.83,0-26.3-2.24-37.39-6.7-11.09-4.46-20.6-11.09-28.52-19.88-7.93-8.79-14.05-19.45-18.37-31.98s-6.77-26.86-7.35-43c-.29-5.76-.43-10.87-.43-15.34s.14-9.43.43-14.91c.57-15.56,3.03-29.53,7.35-41.92,4.32-12.39,10.37-23.05,18.15-31.98,7.78-8.93,17.29-15.78,28.52-20.53,11.24-4.75,23.77-7.13,37.6-7.13s26.79,2.38,37.17,7.13c10.37,4.75,19.16,10.88,26.36,18.37v-92.49c0-3.17,1.01-5.76,3.03-7.78,2.01-2.01,4.61-3.03,7.78-3.03h52.73c2.88,0,5.4,1.01,7.56,3.03,2.16,2.02,3.24,4.61,3.24,7.78v285.25c0,3.17-1.08,5.77-3.24,7.78-2.16,2.02-4.69,3.03-7.56,3.03h-48.84c-3.17,0-5.77-1.01-7.78-3.03-2.02-2.01-3.03-4.61-3.03-7.78v-13.83c-6.92,8.36-15.85,15.28-26.8,20.75-10.95,5.47-24.49,8.21-40.63,8.21ZM2538.65,336.31c9.79,0,17.5-2.09,23.12-6.27,5.62-4.17,9.79-9.58,12.53-16.21,2.74-6.62,4.25-13.83,4.54-21.61.28-5.76.43-11.24.43-16.42s-.15-10.51-.43-15.99c-.29-7.2-1.88-13.9-4.75-20.1-2.88-6.19-7.2-11.24-12.97-15.13-5.77-3.89-13.26-5.83-22.47-5.83s-17.07,2.02-22.69,6.05c-5.62,4.04-9.58,9.51-11.89,16.42-2.31,6.92-3.75,14.55-4.32,22.91-.86,8.93-.86,17.87,0,26.8.58,8.36,2.01,15.99,4.32,22.91,2.3,6.92,6.27,12.39,11.89,16.42,5.62,4.04,13.18,6.05,22.69,6.05Z"/>
    </g>
    <text class="cls-2" transform="translate(2690.07 157.95)"><tspan x="0" y="0">®</tspan></text>
  </g>
</svg>