<svg width="487" height="128" viewBox="0 0 487 128" fill="none" xmlns="http://www.w3.org/2000/svg">
<rect x="7" y="7" width="114" height="114" rx="17" stroke="#334047" stroke-width="12"/>
<path d="M8 87H34C37.3137 87 40 89.6863 40 93C40 96.3137 37.3137 99 34 99H8V87Z" fill="#334047"/>
<path d="M46 93C46 89.6863 48.6863 87 52 87H62C65.3137 87 68 89.6863 68 93C68 96.3137 65.3137 99 62 99H52C48.6863 99 46 96.3137 46 93Z" fill="#334047"/>
<path d="M74 93C74 89.6863 76.6863 87 80 87C83.3137 87 86 89.6863 86 93C86 96.3137 83.3137 99 80 99C76.6863 99 74 96.3137 74 93Z" fill="#334047"/>
<path d="M26 61C26 57.6863 28.6863 55 32 55C35.3137 55 38 57.6863 38 61C38 64.3137 35.3137 67 32 67C28.6863 67 26 64.3137 26 61Z" fill="#334047"/>
<rect x="44" y="55" width="22" height="12" rx="6" fill="#334047"/>
<rect x="72" y="55" width="22" height="12" rx="6" fill="#334047"/>
<path d="M100 61C100 57.6863 102.686 55 106 55C109.314 55 112 57.6863 112 61C112 64.3137 109.314 67 106 67C102.686 67 100 64.3137 100 61Z" fill="#334047"/>
<path d="M68 35C68 31.6863 70.6863 29 74 29H120V41H74C70.6863 41 68 38.3137 68 35Z" fill="#334047"/>
<path d="M165.195 75.4426C165.564 76.552 166.165 77.3378 166.997 77.8C167.829 78.1698 168.985 78.3546 170.464 78.3546C171.943 78.3546 173.468 77.8 175.04 76.6906C176.612 75.5813 177.86 74.472 178.784 73.3626L181.419 53.8106C179.94 51.9618 178.692 50.7138 177.675 50.0666C176.658 49.4195 175.456 49.096 174.069 49.096C171.019 49.096 168.846 50.3902 167.552 52.9786C166.35 55.4746 165.472 59.2186 164.917 64.2106C164.085 69.0178 164.178 72.7618 165.195 75.4426ZM154.933 99.432C159.093 100.819 163.115 101.512 166.997 101.512C169.586 101.512 171.388 101.142 172.405 100.403C174.439 98.7386 175.641 96.104 176.011 92.4986L177.536 82.792H177.397C175.918 84.2711 173.931 85.7502 171.435 87.2293C169.031 88.7084 166.535 89.448 163.947 89.448C161.451 89.448 159.278 88.9858 157.429 88.0613C155.673 87.0444 154.24 85.5191 153.131 83.4853C150.727 79.1404 150.126 73.1315 151.328 65.4586C152.53 56.7689 155.164 50.0204 159.232 45.2133C163.022 40.6835 167.321 38.4186 172.128 38.4186C174.901 38.4186 177.12 39.112 178.784 40.4986C180.54 41.7929 182.158 43.5493 183.637 45.768L185.44 39.112H196.256L188.907 92.2213C187.982 98.6924 185.856 103.453 182.528 106.504C179.2 109.647 174.347 111.219 167.968 111.219C164.455 111.219 161.312 110.849 158.539 110.109C155.858 109.37 153.778 108.769 152.299 108.307L154.933 99.432ZM212.613 88.2H199.717L206.65 39.112H218.021L217.605 45.6293H217.743C219.13 43.4106 220.886 41.5618 223.013 40.0826C225.139 38.6035 226.988 37.864 228.559 37.864C230.131 37.864 231.148 38.0026 231.61 38.28C232.165 38.4649 232.673 38.6498 233.135 38.8346L230.501 50.0666C229.946 49.9742 229.206 49.7893 228.282 49.512C227.45 49.2346 226.479 49.096 225.37 49.096C224.261 49.096 223.105 49.4658 221.903 50.2053C220.702 50.9449 219.176 52.1466 217.327 53.8106L212.613 88.2ZM250.409 16.232C252.535 16.232 254.153 16.9715 255.262 18.4507C256.464 19.9298 256.88 21.8249 256.51 24.136C256.233 26.3546 255.308 28.2035 253.737 29.6826C252.165 31.0693 250.316 31.7626 248.19 31.7626C246.156 31.7626 244.538 31.0693 243.337 29.6826C242.135 28.2035 241.673 26.3546 241.95 24.136C242.412 21.8249 243.429 19.9298 245.001 18.4507C246.572 16.9715 248.375 16.232 250.409 16.232ZM246.665 88.2H233.769L240.425 39.944L253.737 38.1413L246.665 88.2ZM275.661 54.3653L272.194 78.9093C273.674 79.6489 275.476 80.0186 277.602 80.0186C280.838 80.0186 283.426 78.8169 285.368 76.4133C287.309 74.0098 288.65 69.9422 289.389 64.2106C290.221 58.4791 290.129 54.504 289.112 52.2853C288.187 50.0666 286.385 48.9573 283.704 48.9573C281.023 48.9573 278.342 50.76 275.661 54.3653ZM264.845 39.112H276.909L276.493 45.4906H276.632C277.741 44.1964 279.22 42.9022 281.069 41.608C284.49 39.2044 287.494 38.0026 290.082 38.0026C292.763 38.0026 294.982 38.5111 296.738 39.528C298.495 40.5449 299.928 42.0702 301.037 44.104C303.348 48.6338 303.995 54.92 302.978 62.9626C301.777 71.6524 299.003 78.3084 294.658 82.9306C290.776 87.2755 286.015 89.448 280.376 89.448C276.863 89.448 273.72 88.8009 270.946 87.5066L267.618 109.971H254.861L264.845 39.112ZM340.721 39.112L339.611 48.5413H328.934L325.606 72.1146C325.236 74.2409 325.236 75.8124 325.606 76.8293C325.976 77.8462 326.9 78.3546 328.379 78.3546C329.951 78.3546 331.291 78.1698 332.401 77.8C333.51 77.3378 334.25 77.0604 334.619 76.968V86.12C334.25 86.2124 333.695 86.4435 332.955 86.8133C332.216 87.1831 331.384 87.5529 330.459 87.9226C328.148 88.9395 325.56 89.448 322.694 89.448C318.257 89.448 315.252 88.2924 313.681 85.9813C312.109 83.5778 311.693 79.5564 312.433 73.9173L316.177 48.5413H310.907L312.155 39.112H317.425L319.089 27.3253L332.262 25.2453L330.182 39.112H340.721ZM374.934 48.4026C373.27 48.2178 371.098 48.1253 368.417 48.1253C365.736 48.1253 363.471 49.2346 361.622 51.4533C359.866 53.672 358.572 57.6933 357.74 63.5173C357 69.2489 357.046 73.1778 357.878 75.304C358.803 77.4302 360.559 78.4933 363.148 78.4933C364.719 78.4933 366.245 78.0311 367.724 77.1066C369.295 76.0898 370.543 75.0266 371.468 73.9173L374.934 48.4026ZM371.468 82.376C366.198 87.0906 361.068 89.448 356.076 89.448C348.865 89.448 344.751 84.9644 343.734 75.9973C343.365 72.8542 343.503 68.9715 344.15 64.3493C344.798 59.6346 345.907 55.6133 347.478 52.2853C349.05 48.9573 350.899 46.2302 353.025 44.104C357 40.2213 361.946 38.28 367.862 38.28C374.888 38.28 381.96 38.9733 389.078 40.36L382.284 88.2H371.468V82.376ZM412.084 54.3653L408.617 78.9093C410.096 79.6489 411.899 80.0186 414.025 80.0186C417.261 80.0186 419.849 78.8169 421.791 76.4133C423.732 74.0098 425.072 69.9422 425.812 64.2106C426.644 58.4791 426.551 54.504 425.535 52.2853C424.61 50.0666 422.807 48.9573 420.127 48.9573C417.446 48.9573 414.765 50.76 412.084 54.3653ZM401.268 39.112H413.332L412.916 45.4906H413.055C414.164 44.1964 415.643 42.9022 417.492 41.608C420.912 39.2044 423.917 38.0026 426.505 38.0026C429.186 38.0026 431.405 38.5111 433.161 39.528C434.918 40.5449 436.351 42.0702 437.46 44.104C439.771 48.6338 440.418 54.92 439.401 62.9626C438.199 71.6524 435.426 78.3084 431.081 82.9306C427.199 87.2755 422.438 89.448 416.799 89.448C413.286 89.448 410.143 88.8009 407.369 87.5066L404.041 109.971H391.284L401.268 39.112ZM471.285 59.496C471.932 54.7813 471.793 51.5458 470.869 49.7893C469.944 48.0329 468.604 47.1546 466.847 47.1546C465.183 47.1546 463.473 48.0791 461.717 49.928C460.053 51.6844 458.897 54.8738 458.25 59.496H471.285ZM465.183 79.6026C469.251 79.6026 473.319 78.4471 477.386 76.136L478.773 84.7333C476.554 86.3973 472.856 87.7378 467.679 88.7546C465.738 89.2169 463.519 89.448 461.023 89.448C458.527 89.448 456.078 88.9858 453.674 88.0613C451.363 87.1369 449.468 85.704 447.989 83.7626C444.568 79.3253 443.459 73.0853 444.661 65.0426C445.863 56.3529 448.728 49.5582 453.258 44.6586C457.511 40.2213 462.503 38.0026 468.234 38.0026C476.924 38.0026 482.055 42.1626 483.626 50.4826C484.458 54.8275 484.135 59.8195 482.655 65.4586C482.378 66.6604 482.147 67.3538 481.962 67.5386H457.141C456.494 71.7911 456.956 74.888 458.527 76.8293C460.191 78.6782 462.41 79.6026 465.183 79.6026Z" fill="#334047"/>
</svg>
