<svg xmlns="http://www.w3.org/2000/svg" width="105" height="28" viewBox="0 0 115 28" fill="none">
  <!-- First SVG content -->
  <path d="M27.4343 0H0.565657C0.253253 0 0 0.253253 0 0.565657V27.4343C0 27.7467 0.253253 28 0.565657 28H27.4343C27.7467 28 28 27.7467 28 27.4343V0.565657C28 0.253253 27.7467 0 27.4343 0Z" fill="#FF4A36"/>
  <path d="M22.9121 19.8093H13.8616V22.9091H22.9121V19.8093Z" fill="white"/>
  
  <!-- Second SVG content (translated further to the right) -->
  <g transform="translate(38, 5)">
    <path d="M10.0093 0.116364H6.34384H0V3.78182H6.34384V17.9091H10.0093V3.78182H11.842H16.356V0.116364H11.842H10.0093Z" fill="black"/>
    <path d="M34.9979 6.00485C34.9979 2.76646 32.3478 0.116364 29.1095 0.116364H21.7305V3.77899H29.1095C30.3256 3.77899 31.3353 4.78869 31.3353 6.00485C31.3353 7.22101 30.3256 8.23071 29.1095 8.23071H21.7305V11.8933H27.7123L31.3099 17.9091H35.5777L31.6379 11.3192C33.6206 10.3689 34.9979 8.34101 34.9979 6.00485Z" fill="black"/>
    <path d="M47.7189 0.0909119L40.668 17.9091H44.5653L49.6676 5.44485L54.7698 17.9091H58.6672L51.6162 0.0909119H47.7189Z" fill="black"/>
    <path d="M77.525 14.2436H63.6777V17.9091H77.525V14.2436Z" fill="black"/>
    <path d="M77.525 7.1814H63.6777V10.8469H77.525V7.1814Z" fill="black"/>
    <path d="M77.525 0.116364H63.6777V3.78182H77.525V0.116364Z" fill="black"/>
  </g>
</svg>